<?xml version="1.0" encoding="UTF-8"?>
<svg xmlns="http://www.w3.org/2000/svg" version="1.1" viewBox="0 0 262.66 341.51">
  <defs>
    <style>
      .cls-1 {
        fill: #221f20;
      }
    </style>
  </defs>
  <!-- Generator: Adobe Illustrator 28.7.1, SVG Export Plug-In . SVG Version: 1.2.0 Build 142)  -->
  <g>
    <g id="Layer_1">
      <g id="Layer_1-2" data-name="Layer_1">
        <g>
          <rect class="cls-1" x="3.23" y="285.53" width="10.8" height="1.09" transform="translate(-272.99 235.04) rotate(-78)"/>
          <rect class="cls-1" x="3.23" y="267.08" width="10.8" height="1.09" transform="translate(-254.94 220.43) rotate(-78)"/>
          <rect class="cls-1" x="3.24" y="248.65" width="10.8" height="1.09" transform="translate(-234.3 193.04) rotate(-75)"/>
          <rect class="cls-1" x="3.23" y="230.22" width="10.8" height="1.09" transform="translate(-213.51 167.66) rotate(-72)"/>
          <rect class="cls-1" x="3.24" y="211.78" width="10.8" height="1.09" transform="translate(-192.68 144.3) rotate(-69)"/>
          <rect class="cls-1" x="3.23" y="193.34" width="10.8" height="1.09" transform="translate(-168.03 113.55) rotate(-63)"/>
          <rect class="cls-1" x="3.23" y="174.9" width="10.8" height="1.09" transform="translate(-133.14 71.74) rotate(-51)"/>
          <rect class="cls-1" x="3.23" y="156.47" width="10.8" height="1.09" transform="translate(-108.5 52.09) rotate(-45)"/>
          <rect class="cls-1" x="3.23" y="138.03" width="10.8" height="1.09" transform="translate(-79.8 31.54) rotate(-36)"/>
          <rect class="cls-1" x="3.23" y="119.59" width="10.8" height="1.09" transform="translate(-53.6 17.01) rotate(-27)"/>
          <rect class="cls-1" x="3.24" y="101.16" width="10.8" height="1.09" transform="translate(-26.03 5.7) rotate(-15)"/>
          <rect class="cls-1" x="3.23" y="82.71" width="10.8" height="1.09" transform="translate(-12.92 2.38) rotate(-9)"/>
          <rect class="cls-1" x="8.09" y="59.42" width="1.09" height="10.8" transform="translate(-56.55 70.05) rotate(-87)"/>
          <rect class="cls-1" x="8.09" y="40.99" width="1.09" height="10.8" transform="translate(-38.54 45.19) rotate(-78)"/>
          <rect class="cls-1" x="8.09" y="22.55" width="1.09" height="10.8" transform="translate(-20.55 26) rotate(-69)"/>
          <rect class="cls-1" x="8.08" y="4.11" width="1.09" height="10.8" transform="translate(-3.92 12.23) rotate(-60)"/>
          <rect class="cls-1" x="22.12" y="285.53" width="10.8" height="1.09" transform="translate(-259.6 298.58) rotate(-87)"/>
          <rect class="cls-1" x="22.12" y="267.09" width="10.8" height="1.09" transform="translate(-241.19 281.12) rotate(-87)"/>
          <rect class="cls-1" x="22.12" y="248.65" width="10.8" height="1.09" transform="translate(-222.77 263.63) rotate(-87)"/>
          <rect class="cls-1" x="22.12" y="230.22" width="10.8" height="1.09" transform="translate(-204.86 234.01) rotate(-84)"/>
          <rect class="cls-1" x="22.13" y="211.78" width="10.8" height="1.09" transform="translate(-184.68 183.96) rotate(-75)"/>
          <rect class="cls-1" x="22.12" y="193.33" width="10.8" height="1.09" transform="translate(-163.34 150.09) rotate(-69)"/>
          <rect class="cls-1" x="22.12" y="174.9" width="10.8" height="1.09" transform="translate(-138.18 111.56) rotate(-60)"/>
          <rect class="cls-1" x="22.12" y="156.46" width="10.8" height="1.09" transform="translate(-111.82 79.59) rotate(-51)"/>
          <rect class="cls-1" x="22.12" y="138.02" width="10.8" height="1.09" transform="translate(-81.07 48.2) rotate(-39)"/>
          <rect class="cls-1" x="22.13" y="119.58" width="10.8" height="1.09" transform="translate(-56.38 29.86) rotate(-30)"/>
          <rect class="cls-1" x="22.13" y="101.15" width="10.8" height="1.09" transform="translate(-34.62 16.62) rotate(-21)"/>
          <rect class="cls-1" x="22.12" y="82.71" width="10.8" height="1.09" transform="translate(-8.55 3.33) rotate(-6)"/>
          <rect class="cls-1" x="26.98" y="59.42" width="1.09" height="10.8" transform="translate(-38.64 88.91) rotate(-87)"/>
          <rect class="cls-1" x="26.98" y="40.98" width="1.09" height="10.8" transform="translate(-23.56 63.66) rotate(-78)"/>
          <rect class="cls-1" x="26.98" y="22.55" width="1.09" height="10.8" transform="translate(-8.43 43.63) rotate(-69)"/>
          <rect class="cls-1" x="26.98" y="4.11" width="1.09" height="10.8" transform="translate(5.53 28.59) rotate(-60)"/>
          <rect class="cls-1" x="45.83" y="280.67" width="1.09" height="10.8" transform="translate(-29.65 6.41) rotate(-6)"/>
          <rect class="cls-1" x="45.83" y="262.23" width="1.09" height="10.8" transform="translate(-27.72 6.31) rotate(-6)"/>
          <rect class="cls-1" x="45.84" y="243.8" width="1.09" height="10.8" transform="translate(-25.79 6.21) rotate(-6)"/>
          <rect class="cls-1" x="45.84" y="225.36" width="1.09" height="10.8"/>
          <rect class="cls-1" x="40.98" y="211.77" width="10.8" height="1.09" transform="translate(-168.07 247.53) rotate(-87)"/>
          <rect class="cls-1" x="40.98" y="193.34" width="10.8" height="1.09" transform="translate(-152.9 198.94) rotate(-78)"/>
          <rect class="cls-1" x="40.99" y="174.9" width="10.8" height="1.09" transform="translate(-134.03 155.87) rotate(-69)"/>
          <rect class="cls-1" x="40.98" y="156.46" width="10.8" height="1.09" transform="translate(-110.56 110.4) rotate(-57)"/>
          <rect class="cls-1" x="40.98" y="138.03" width="10.8" height="1.09" transform="translate(-80.81 66.63) rotate(-42)"/>
          <rect class="cls-1" x="40.99" y="119.59" width="10.8" height="1.09" transform="translate(-53.85 39.29) rotate(-30)"/>
          <rect class="cls-1" x="40.99" y="101.15" width="10.8" height="1.09" transform="translate(-29.15 19.31) rotate(-18)"/>
          <rect class="cls-1" x="40.99" y="82.71" width="10.8" height="1.09" transform="translate(-8.45 5.3) rotate(-6)"/>
          <rect class="cls-1" x="45.84" y="59.42" width="1.09" height="10.8" transform="translate(-22.93 104.17) rotate(-84)"/>
          <rect class="cls-1" x="45.84" y="40.99" width="1.09" height="10.8" transform="translate(-8.63 82.12) rotate(-78)"/>
          <rect class="cls-1" x="45.85" y="22.55" width="1.09" height="10.8" transform="translate(3.67 61.24) rotate(-69)"/>
          <rect class="cls-1" x="45.84" y="4.11" width="1.09" height="10.8" transform="translate(14.96 44.93) rotate(-60)"/>
          <rect class="cls-1" x="64.53" y="280.68" width="1.09" height="10.8" transform="translate(-71.83 26.59) rotate(-15)"/>
          <rect class="cls-1" x="64.52" y="262.24" width="1.09" height="10.8" transform="translate(-67.05 25.96) rotate(-15)"/>
          <rect class="cls-1" x="64.52" y="243.8" width="1.09" height="10.8" transform="translate(-62.28 25.33) rotate(-15)"/>
          <rect class="cls-1" x="64.52" y="225.36" width="1.09" height="10.8" transform="translate(-46.56 18.57) rotate(-12)"/>
          <rect class="cls-1" x="64.53" y="206.92" width="1.09" height="10.8" transform="translate(-21.84 7.97) rotate(-6)"/>
          <rect class="cls-1" x="64.53" y="188.48" width="1.09" height="10.8"/>
          <rect class="cls-1" x="59.67" y="174.9" width="10.8" height="1.09" transform="translate(-121.24 192.89) rotate(-75)"/>
          <rect class="cls-1" x="59.67" y="156.46" width="10.8" height="1.09" transform="translate(-103.44 134.85) rotate(-60)"/>
          <rect class="cls-1" x="59.68" y="138.03" width="10.8" height="1.09" transform="translate(-78.93 86.6) rotate(-45)"/>
          <rect class="cls-1" x="59.68" y="119.58" width="10.8" height="1.09" transform="translate(-51.34 48.63) rotate(-30)"/>
          <rect class="cls-1" x="59.68" y="101.14" width="10.8" height="1.09" transform="translate(-24.1 20.31) rotate(-15)"/>
          <rect class="cls-1" x="59.68" y="82.71" width="10.8" height="1.09" transform="translate(-8.35 7.26) rotate(-6)"/>
          <rect class="cls-1" x="64.53" y="59.42" width="1.09" height="10.8" transform="translate(-9.13 118.95) rotate(-81)"/>
          <rect class="cls-1" x="64.54" y="40.98" width="1.09" height="10.8" transform="translate(.86 93.94) rotate(-72)"/>
          <rect class="cls-1" x="64.54" y="22.55" width="1.09" height="10.8" transform="translate(13.08 76.04) rotate(-66)"/>
          <rect class="cls-1" x="64.54" y="4.11" width="1.09" height="10.8" transform="translate(19.14 56.57) rotate(-54)"/>
          <rect class="cls-1" x="83.69" y="280.68" width="1.09" height="10.8" transform="translate(-120.7 69.42) rotate(-27)"/>
          <rect class="cls-1" x="83.69" y="262.23" width="1.09" height="10.8" transform="translate(-122.53 77.97) rotate(-30)"/>
          <rect class="cls-1" x="83.68" y="243.8" width="1.09" height="10.8" transform="translate(-103.95 65.4) rotate(-27)"/>
          <rect class="cls-1" x="83.69" y="225.37" width="1.09" height="10.8" transform="translate(-95.59 63.39) rotate(-27)"/>
          <rect class="cls-1" x="83.69" y="206.93" width="1.09" height="10.8" transform="translate(-79.08 52.62) rotate(-24)"/>
          <rect class="cls-1" x="83.69" y="188.48" width="1.09" height="10.8" transform="translate(-38.47 21.75) rotate(-12)"/>
          <rect class="cls-1" x="78.83" y="138.03" width="10.8" height="1.09" transform="translate(-71.09 91.95) rotate(-42)"/>
          <rect class="cls-1" x="78.83" y="119.59" width="10.8" height="1.09" transform="translate(-41.58 44.65) rotate(-24)"/>
          <rect class="cls-1" x="78.84" y="101.15" width="10.8" height="1.09" transform="translate(-14.87 14.43) rotate(-9)"/>
          <rect class="cls-1" x="83.69" y="77.85" width="1.09" height="10.8" transform="translate(-3.31 163.01) rotate(-87)"/>
          <rect class="cls-1" x="83.69" y="59.42" width="1.09" height="10.8" transform="translate(3.33 133.74) rotate(-78)"/>
          <rect class="cls-1" x="83.7" y="40.98" width="1.09" height="10.8" transform="translate(10.75 108.4) rotate(-69)"/>
          <rect class="cls-1" x="83.69" y="22.54" width="1.09" height="10.8" transform="translate(17.92 86.93) rotate(-60)"/>
          <rect class="cls-1" x="83.7" y="4.11" width="1.09" height="10.8" transform="translate(23.84 68.99) rotate(-51)"/>
          <rect class="cls-1" x="102.63" y="280.68" width="1.09" height="10.8" transform="translate(-148.45 115.28) rotate(-36)"/>
          <rect class="cls-1" x="102.63" y="262.24" width="1.09" height="10.8" transform="translate(-145.44 124.58) rotate(-39)"/>
          <rect class="cls-1" x="102.63" y="243.8" width="1.09" height="10.8" transform="translate(-140.24 133.05) rotate(-42)"/>
          <rect class="cls-1" x="102.64" y="225.36" width="1.09" height="10.8" transform="translate(-132.95 140.55) rotate(-45)"/>
          <rect class="cls-1" x="102.64" y="206.93" width="1.09" height="10.8" transform="translate(-115.57 123.58) rotate(-42)"/>
          <rect class="cls-1" x="102.63" y="188.49" width="1.09" height="10.8" transform="translate(-83.12 77.56) rotate(-30)"/>
          <rect class="cls-1" x="97.79" y="138.03" width="10.8" height="1.09" transform="translate(-58.83 78.56) rotate(-33)"/>
          <rect class="cls-1" x="97.78" y="119.59" width="10.8" height="1.09" transform="translate(-27.58 30.8) rotate(-15)"/>
          <rect class="cls-1" x="97.78" y="101.15" width="10.8" height="1.09"/>
          <rect class="cls-1" x="102.64" y="77.86" width="1.09" height="10.8" transform="translate(4.81 172.15) rotate(-81)"/>
          <rect class="cls-1" x="102.64" y="59.42" width="1.09" height="10.8" transform="translate(5.69 137.93) rotate(-69)"/>
          <rect class="cls-1" x="102.64" y="40.99" width="1.09" height="10.8" transform="translate(15.01 117.27) rotate(-63)"/>
          <rect class="cls-1" x="102.64" y="22.55" width="1.09" height="10.8" transform="translate(19.92 95) rotate(-54)"/>
          <rect class="cls-1" x="102.64" y="4.12" width="1.09" height="10.8" transform="translate(27.07 79.83) rotate(-48)"/>
          <rect class="cls-1" x="121.06" y="280.67" width="1.09" height="10.8" transform="translate(-160.18 154.85) rotate(-42)"/>
          <rect class="cls-1" x="121.06" y="262.23" width="1.09" height="10.8" transform="translate(-162.91 193.71) rotate(-51)"/>
          <rect class="cls-1" x="121.06" y="243.8" width="1.09" height="10.8" transform="translate(-151.48 201.11) rotate(-54)"/>
          <rect class="cls-1" x="121.06" y="225.36" width="1.09" height="10.8" transform="translate(-139.04 220.7) rotate(-60)"/>
          <rect class="cls-1" x="121.07" y="206.92" width="1.09" height="10.8" transform="translate(-122.78 224.29) rotate(-63)"/>
          <rect class="cls-1" x="121.07" y="188.48" width="1.09" height="10.8" transform="translate(-107.1 202.26) rotate(-60)"/>
          <rect class="cls-1" x="116.21" y="138.03" width="10.8" height="1.09" transform="translate(-20.18 20.73) rotate(-9)"/>
          <rect class="cls-1" x="121.06" y="114.74" width="1.09" height="10.8" transform="translate(-10.58 228.53) rotate(-84)"/>
          <rect class="cls-1" x="121.06" y="96.29" width="1.09" height="10.8" transform="translate(-3.15 199.5) rotate(-78)"/>
          <rect class="cls-1" x="121.07" y="77.87" width="1.09" height="10.8" transform="translate(.3 166.97) rotate(-69)"/>
          <rect class="cls-1" x="121.07" y="59.43" width="1.09" height="10.8" transform="translate(8.64 143.75) rotate(-63)"/>
          <rect class="cls-1" x="121.07" y="40.98" width="1.09" height="10.8" transform="translate(12.61 117.5) rotate(-54)"/>
          <rect class="cls-1" x="121.06" y="22.54" width="1.09" height="10.8" transform="translate(19.47 99.62) rotate(-48)"/>
          <rect class="cls-1" x="121.07" y="4.12" width="1.09" height="10.8" transform="translate(24.87 83.82) rotate(-42)"/>
          <rect class="cls-1" x="140.07" y="280.68" width="1.09" height="10.8" transform="translate(-175.89 248.2) rotate(-57)"/>
          <rect class="cls-1" x="140.07" y="262.24" width="1.09" height="10.8" transform="translate(-161.69 271.43) rotate(-63)"/>
          <rect class="cls-1" x="140.07" y="243.8" width="1.09" height="10.8" transform="translate(-142.43 291.18) rotate(-69)"/>
          <rect class="cls-1" x="140.08" y="225.36" width="1.09" height="10.8" transform="translate(-114.33 320.34) rotate(-78)"/>
          <rect class="cls-1" x="140.08" y="206.93" width="1.09" height="10.8" transform="translate(-78.77 341.65) rotate(-87)"/>
          <rect class="cls-1" x="135.22" y="193.34" width="10.8" height="1.09" transform="translate(-28.6 24.39) rotate(-9)"/>
          <rect class="cls-1" x="140.08" y="133.18" width="1.09" height="10.8" transform="translate(-46.7 200.96) rotate(-63)"/>
          <rect class="cls-1" x="140.08" y="114.74" width="1.09" height="10.8" transform="translate(-30.26 190.89) rotate(-63)"/>
          <rect class="cls-1" x="140.07" y="96.3" width="1.09" height="10.8" transform="translate(-17.77 172.63) rotate(-60)"/>
          <rect class="cls-1" x="140.08" y="77.86" width="1.09" height="10.8" transform="translate(-5.79 155.85) rotate(-57)"/>
          <rect class="cls-1" x="140.08" y="59.43" width="1.09" height="10.8" transform="translate(5.52 140.49) rotate(-54)"/>
          <rect class="cls-1" x="140.08" y="40.99" width="1.09" height="10.8" transform="translate(5.08 106.01) rotate(-42)"/>
          <rect class="cls-1" x="140.07" y="22.55" width="1.09" height="10.8" transform="translate(13.75 94.72) rotate(-39)"/>
          <rect class="cls-1" x="140.07" y="4.12" width="1.09" height="10.8" transform="translate(17.5 78.12) rotate(-33)"/>
          <rect class="cls-1" x="158.9" y="280.67" width="1.09" height="10.8" transform="translate(-168.03 281.12) rotate(-60)"/>
          <rect class="cls-1" x="158.9" y="262.24" width="1.09" height="10.8" transform="translate(-144.37 336.57) rotate(-72)"/>
          <rect class="cls-1" x="158.9" y="243.8" width="1.09" height="10.8" transform="translate(-111.63 367.69) rotate(-81)"/>
          <rect class="cls-1" x="154.05" y="230.22" width="10.8" height="1.09"/>
          <rect class="cls-1" x="154.04" y="211.78" width="10.8" height="1.09" transform="translate(-49.52 48.5) rotate(-15)"/>
          <rect class="cls-1" x="154.04" y="193.35" width="10.8" height="1.09" transform="translate(-79.88 118.12) rotate(-33)"/>
          <rect class="cls-1" x="158.9" y="133.18" width="1.09" height="10.8" transform="translate(-49.75 109.2) rotate(-33)"/>
          <rect class="cls-1" x="158.89" y="114.73" width="1.09" height="10.8" transform="translate(-39.43 137.54) rotate(-42)"/>
          <rect class="cls-1" x="158.89" y="96.3" width="1.09" height="10.8" transform="translate(-25.21 142.52) rotate(-45)"/>
          <rect class="cls-1" x="158.9" y="77.86" width="1.09" height="10.8" transform="translate(-14.76 128.08) rotate(-42)"/>
          <rect class="cls-1" x="158.89" y="59.42" width="1.09" height="10.8" transform="translate(-5.26 114.78) rotate(-39)"/>
          <rect class="cls-1" x="158.89" y="40.99" width="1.09" height="10.8" transform="translate(3.18 102.57) rotate(-36)"/>
          <rect class="cls-1" x="158.89" y="22.54" width="1.09" height="10.8" transform="translate(7.39 83.46) rotate(-30)"/>
          <rect class="cls-1" x="158.9" y="4.12" width="1.09" height="10.8" transform="translate(13.06 73.42) rotate(-27)"/>
          <rect class="cls-1" x="177.71" y="280.68" width="1.09" height="10.8" transform="translate(-152.7 349.98) rotate(-69)"/>
          <rect class="cls-1" x="177.72" y="262.24" width="1.09" height="10.8" transform="translate(-120.6 386.36) rotate(-78)"/>
          <rect class="cls-1" x="177.71" y="243.8" width="1.09" height="10.8" transform="translate(-79.93 414.17) rotate(-87)"/>
          <rect class="cls-1" x="172.86" y="230.22" width="10.8" height="1.09" transform="translate(-33.9 30.73) rotate(-9)"/>
          <rect class="cls-1" x="172.86" y="211.78" width="10.8" height="1.09" transform="translate(-70.95 90.86) rotate(-24)"/>
          <rect class="cls-1" x="172.86" y="193.34" width="10.8" height="1.09" transform="translate(-83.95 169.08) rotate(-42)"/>
          <rect class="cls-1" x="177.71" y="133.17" width="1.09" height="10.8" transform="translate(-24.92 40.09) rotate(-12)"/>
          <rect class="cls-1" x="177.71" y="114.73" width="1.09" height="10.8" transform="translate(-33.45 82.89) rotate(-24)"/>
          <rect class="cls-1" x="177.71" y="96.3" width="1.09" height="10.8" transform="translate(-26.74 92.01) rotate(-27)"/>
          <rect class="cls-1" x="177.71" y="77.87" width="1.09" height="10.8" transform="translate(-17.75 100.29) rotate(-30)"/>
          <rect class="cls-1" x="177.71" y="59.42" width="1.09" height="10.8" transform="translate(-8.53 97.81) rotate(-30)"/>
          <rect class="cls-1" x="177.71" y="40.99" width="1.09" height="10.8" transform="translate(-3.46 76.51) rotate(-24)"/>
          <rect class="cls-1" x="177.71" y="22.54" width="1.09" height="10.8" transform="translate(4.05 74.92) rotate(-24)"/>
          <rect class="cls-1" x="177.72" y="4.12" width="1.09" height="10.8" transform="translate(5.78 55.55) rotate(-18)"/>
          <rect class="cls-1" x="196.87" y="280.68" width="1.09" height="10.8" transform="translate(-135.66 385.42) rotate(-72)"/>
          <rect class="cls-1" x="196.87" y="262.24" width="1.09" height="10.8" transform="translate(-89.4 436) rotate(-84)"/>
          <rect class="cls-1" x="192.01" y="248.66" width="10.8" height="1.09" transform="translate(-12.77 10.67) rotate(-3)"/>
          <rect class="cls-1" x="192.02" y="230.22" width="10.8" height="1.09" transform="translate(-61.65 72.3) rotate(-18)"/>
          <rect class="cls-1" x="192.02" y="211.78" width="10.8" height="1.09" transform="translate(-79.71 127.15) rotate(-30)"/>
          <rect class="cls-1" x="192.02" y="193.35" width="10.8" height="1.09" transform="translate(-79.28 196.39) rotate(-45)"/>
          <rect class="cls-1" x="192.02" y="174.91" width="10.8" height="1.09" transform="translate(-53.24 258.7) rotate(-60)"/>
          <rect class="cls-1" x="192.02" y="156.47" width="10.8" height="1.09" transform="translate(-5.34 307.07) rotate(-75)"/>
          <rect class="cls-1" x="196.87" y="133.17" width="1.09" height="10.8"/>
          <rect class="cls-1" x="196.87" y="114.73" width="1.09" height="10.8" transform="translate(-16.36 32.36) rotate(-9)"/>
          <rect class="cls-1" x="196.87" y="96.3" width="1.09" height="10.8" transform="translate(-16.83 43.27) rotate(-12)"/>
          <rect class="cls-1" x="196.87" y="77.87" width="1.09" height="10.8" transform="translate(-14.82 53.93) rotate(-15)"/>
          <rect class="cls-1" x="196.86" y="59.42" width="1.09" height="10.8" transform="translate(-10.37 64.17) rotate(-18)"/>
          <rect class="cls-1" x="196.87" y="40.98" width="1.09" height="10.8" transform="translate(-5.28 52.68) rotate(-15)"/>
          <rect class="cls-1" x="196.86" y="22.55" width="1.09" height="10.8" transform="translate(-1.5 41.65) rotate(-12)"/>
          <rect class="cls-1" x="196.86" y="4.12" width="1.09" height="10.8" transform="translate(.94 31) rotate(-9)"/>
          <rect class="cls-1" x="215.85" y="280.67" width="1.09" height="10.8" transform="translate(-108.41 438.26) rotate(-78)"/>
          <rect class="cls-1" x="215.86" y="262.24" width="1.09" height="10.8" transform="translate(-72.39 454.88) rotate(-84)"/>
          <rect class="cls-1" x="211.01" y="248.65" width="10.8" height="1.09" transform="translate(-24.86 23.99) rotate(-6)"/>
          <rect class="cls-1" x="211" y="230.22" width="10.8" height="1.09" transform="translate(-60.72 78.17) rotate(-18)"/>
          <rect class="cls-1" x="211" y="211.78" width="10.8" height="1.09" transform="translate(-77.17 136.65) rotate(-30)"/>
          <rect class="cls-1" x="211.01" y="193.34" width="10.8" height="1.09" transform="translate(-74.15 194.6) rotate(-42)"/>
          <rect class="cls-1" x="211.01" y="174.9" width="10.8" height="1.09" transform="translate(-52.73 247.4) rotate(-54)"/>
          <rect class="cls-1" x="211" y="156.47" width="10.8" height="1.09" transform="translate(-15.06 290.84) rotate(-66)"/>
          <rect class="cls-1" x="211" y="138.03" width="10.8" height="1.09" transform="translate(35.86 321.43) rotate(-78)"/>
          <rect class="cls-1" x="211" y="119.59" width="10.8" height="1.09" transform="translate(85.11 329.95) rotate(-87)"/>
          <rect class="cls-1" x="215.86" y="96.29" width="1.09" height="10.8"/>
          <rect class="cls-1" x="215.85" y="77.86" width="1.09" height="10.8" transform="translate(-7.52 23.08) rotate(-6)"/>
          <rect class="cls-1" x="215.85" y="59.42" width="1.09" height="10.8" transform="translate(-5.59 22.97) rotate(-6)"/>
          <rect class="cls-1" x="215.86" y="40.98" width="1.09" height="10.8" transform="translate(-3.66 22.87) rotate(-6)"/>
          <rect class="cls-1" x="215.85" y="22.54" width="1.09" height="10.8" transform="translate(-1.17 11.36) rotate(-3)"/>
          <rect class="cls-1" x="215.86" y="4.11" width="1.09" height="10.8"/>
          <rect class="cls-1" x="234.81" y="280.68" width="1.09" height="10.8" transform="translate(-93.41 456.82) rotate(-78)"/>
          <rect class="cls-1" x="234.81" y="262.24" width="1.09" height="10.8" transform="translate(-44.23 488.66) rotate(-87)"/>
          <rect class="cls-1" x="229.97" y="248.65" width="10.8" height="1.09" transform="translate(-24.76 25.97) rotate(-6)"/>
          <rect class="cls-1" x="229.95" y="230.21" width="10.8" height="1.09" transform="translate(-59.79 84.02) rotate(-18)"/>
          <rect class="cls-1" x="229.96" y="211.77" width="10.8" height="1.09" transform="translate(-74.63 146.12) rotate(-30)"/>
          <rect class="cls-1" x="229.96" y="193.34" width="10.8" height="1.09" transform="translate(-69.56 191.32) rotate(-39)"/>
          <rect class="cls-1" x="229.96" y="174.9" width="10.8" height="1.09" transform="translate(-49.1 247.94) rotate(-51)"/>
          <rect class="cls-1" x="229.95" y="156.46" width="10.8" height="1.09" transform="translate(-18.3 282.33) rotate(-60)"/>
          <rect class="cls-1" x="229.95" y="138.03" width="10.8" height="1.09" transform="translate(21.64 308.63) rotate(-69)"/>
          <rect class="cls-1" x="229.96" y="119.59" width="10.8" height="1.09" transform="translate(68.92 325.37) rotate(-78)"/>
          <rect class="cls-1" x="229.95" y="101.15" width="10.8" height="1.09" transform="translate(109.61 325.13) rotate(-84)"/>
          <rect class="cls-1" x="229.95" y="82.71" width="10.8" height="1.09" transform="translate(127.95 308.62) rotate(-84)"/>
          <rect class="cls-1" x="229.95" y="64.28" width="10.8" height="1.09" transform="translate(158.3 296.46) rotate(-87)"/>
          <rect class="cls-1" x="229.95" y="45.84" width="10.8" height="1.09" transform="translate(176.71 278.98) rotate(-87)"/>
          <rect class="cls-1" x="229.95" y="27.4" width="10.8" height="1.09" transform="translate(182.96 259.08) rotate(-84)"/>
          <rect class="cls-1" x="229.95" y="8.97" width="10.8" height="1.09" transform="translate(201.29 242.58) rotate(-84)"/>
          <rect class="cls-1" x="253.47" y="280.68" width="1.09" height="10.8" transform="translate(-78.63 475.07) rotate(-78)"/>
          <rect class="cls-1" x="253.47" y="262.23" width="1.09" height="10.8" transform="translate(-26.54 507.29) rotate(-87)"/>
          <rect class="cls-1" x="248.62" y="248.65" width="10.8" height="1.09" transform="translate(-24.66 27.92) rotate(-6)"/>
          <rect class="cls-1" x="248.62" y="230.21" width="10.8" height="1.09" transform="translate(-51.07 73.61) rotate(-15)"/>
          <rect class="cls-1" x="248.61" y="211.78" width="10.8" height="1.09" transform="translate(-64.4 121.67) rotate(-24)"/>
          <rect class="cls-1" x="248.62" y="193.34" width="10.8" height="1.09" transform="translate(-65.45 186.34) rotate(-36)"/>
          <rect class="cls-1" x="248.61" y="174.89" width="10.8" height="1.09" transform="translate(-46.33 246.82) rotate(-48)"/>
          <rect class="cls-1" x="248.61" y="156.47" width="10.8" height="1.09" transform="translate(-27.87 255.6) rotate(-51)"/>
          <rect class="cls-1" x="248.61" y="138.02" width="10.8" height="1.09" transform="translate(7 289.27) rotate(-60)"/>
          <rect class="cls-1" x="248.61" y="119.59" width="10.8" height="1.09" transform="translate(40.95 303.32) rotate(-66)"/>
          <rect class="cls-1" x="248.61" y="101.15" width="10.8" height="1.09" transform="translate(78.8 311.85) rotate(-72)"/>
          <rect class="cls-1" x="248.61" y="82.71" width="10.8" height="1.09" transform="translate(107.85 307.07) rotate(-75)"/>
          <rect class="cls-1" x="248.61" y="64.27" width="10.8" height="1.09" transform="translate(137.79 299.8) rotate(-78)"/>
          <rect class="cls-1" x="248.61" y="45.84" width="10.8" height="1.09" transform="translate(155.83 285.2) rotate(-78)"/>
          <rect class="cls-1" x="248.62" y="27.4" width="10.8" height="1.09" transform="translate(173.87 270.6) rotate(-78)"/>
          <rect class="cls-1" x="248.61" y="8.97" width="10.8" height="1.09" transform="translate(179.08 252.4) rotate(-75)"/>
          <rect class="cls-1" x="3.23" y="303.84" width="10.8" height="1.09" transform="translate(-290.9 249.55) rotate(-78)"/>
          <rect class="cls-1" x="22.12" y="303.84" width="10.8" height="1.09" transform="translate(-277.89 315.94) rotate(-87)"/>
          <rect class="cls-1" x="45.83" y="298.98" width="1.09" height="10.8" transform="translate(-15.87 2.84) rotate(-3)"/>
          <rect class="cls-1" x="64.53" y="298.98" width="1.09" height="10.8" transform="translate(-61.86 20.18) rotate(-12)"/>
          <rect class="cls-1" x="83.69" y="298.99" width="1.09" height="10.8" transform="translate(-116.52 60.58) rotate(-24)"/>
          <rect class="cls-1" x="102.63" y="298.98" width="1.09" height="10.8" transform="translate(-138.37 92.37) rotate(-30)"/>
          <rect class="cls-1" x="121.07" y="298.98" width="1.09" height="10.8" transform="translate(-164.45 144.36) rotate(-39)"/>
          <rect class="cls-1" x="140.07" y="298.99" width="1.09" height="10.8" transform="translate(-179.68 205.21) rotate(-48)"/>
          <rect class="cls-1" x="158.9" y="298.99" width="1.09" height="10.8" transform="translate(-182.68 272.33) rotate(-57)"/>
          <rect class="cls-1" x="177.72" y="298.98" width="1.09" height="10.8" transform="translate(-174.47 306.57) rotate(-60)"/>
          <rect class="cls-1" x="196.87" y="298.99" width="1.09" height="10.8" transform="translate(-160.95 360.93) rotate(-66)"/>
          <rect class="cls-1" x="215.85" y="298.99" width="1.09" height="10.8" transform="translate(-145.32 397.33) rotate(-69)"/>
          <rect class="cls-1" x="234.81" y="298.99" width="1.09" height="10.8" transform="translate(-133.17 415.03) rotate(-69)"/>
          <rect class="cls-1" x="253.47" y="298.99" width="1.09" height="10.8" transform="translate(-121.19 432.45) rotate(-69)"/>
        </g>
        <g>
          <path class="cls-1" d="M72.89,329.26h-2.82v8.02h2.82c2.47,0,4.26-1.72,4.26-4.03s-1.79-3.99-4.26-3.99ZM76.01,333.3c0,1.73-1.28,2.94-3.11,2.94h-1.71v-5.93h1.71c1.83,0,3.11,1.26,3.11,2.99Z"/>
          <rect class="cls-1" x="81.75" y="329.26" width="1.11" height="8.02"/>
          <path class="cls-1" d="M91.19,332.71c-1.71-.37-2.02-.75-2.02-1.42s.63-1.14,1.54-1.14c.79,0,1.48.26,2.17.82l.09.08.65-.87-.09-.07c-.86-.69-1.7-.98-2.81-.98-1.55,0-2.68.94-2.68,2.26,0,1.47,1.08,2.01,2.71,2.36,1.63.35,1.93.73,1.93,1.39,0,.71-.62,1.21-1.62,1.21s-1.75-.31-2.59-1.07l-.09-.08-.7.83.09.08c.97.87,2.01,1.28,3.26,1.28v-.02c1.65,0,2.79-.95,2.79-2.34,0-1.23-.79-1.92-2.63-2.32Z"/>
          <polygon class="cls-1" points="98 330.31 100.61 330.31 100.61 337.28 101.73 337.28 101.74 337.28 101.74 330.31 104.35 330.31 104.35 329.26 98 329.26 98 330.31"/>
          <path class="cls-1" d="M115.51,331.69c0-.64-.23-1.21-.64-1.62-.53-.52-1.34-.81-2.3-.81h-3.47v8.02h1.11v-3.03h2.05l2.26,3.03h1.38l-2.42-3.22c1.28-.3,2.03-1.16,2.03-2.37ZM110.2,330.31h2.29c1.19,0,1.87.54,1.87,1.44s-.73,1.48-1.88,1.48h-2.28v-2.92Z"/>
          <rect class="cls-1" x="120.56" y="329.26" width="1.11" height="8.02"/>
          <path class="cls-1" d="M132.96,335.29c-.68.65-1.36,1.09-2.43,1.09-1.63,0-2.9-1.37-2.9-3.12s1.25-3.07,2.9-3.07c.9,0,1.61.31,2.37,1.04l.09.08.76-.82-.08-.08c-.7-.66-1.56-1.27-3.12-1.27-2.28,0-4.06,1.82-4.06,4.14v.02c0,2.35,1.73,4.12,4.02,4.12,1.6,0,2.51-.71,3.19-1.4l.08-.08-.74-.73-.08.08Z"/>
          <polygon class="cls-1" points="130.51 337.42 130.5 337.42 130.5 337.42 130.51 337.42"/>
          <polygon class="cls-1" points="137.4 330.31 140.01 330.31 140.01 337.28 141.13 337.28 141.14 337.28 141.14 330.31 143.75 330.31 143.75 329.26 137.4 329.26 137.4 330.31"/>
          <polygon class="cls-1" points="158.85 337.42 158.84 337.42 158.84 337.42 158.85 337.42"/>
          <path class="cls-1" d="M161.3,335.29c-.68.65-1.36,1.09-2.43,1.09-1.63,0-2.9-1.37-2.9-3.12s1.25-3.07,2.9-3.07c.9,0,1.61.31,2.37,1.04l.09.08.76-.82-.08-.08c-.7-.66-1.56-1.27-3.12-1.27-2.28,0-4.06,1.82-4.06,4.14v.02c0,2.35,1.73,4.12,4.02,4.12,1.6,0,2.51-.71,3.19-1.4l.08-.08-.74-.73-.08.08Z"/>
          <path class="cls-1" d="M169,329.2l-3.66,8.08h1.16l.92-2.06h4.08l.91,2.06h1.21l-3.65-8.08h-.97ZM171.05,334.19h-3.19l1.6-3.55,1.59,3.55Z"/>
          <polygon class="cls-1" points="177.53 337.28 178.64 337.28 178.64 333.9 182.86 333.9 182.86 332.86 178.64 332.86 178.64 330.31 183.36 330.31 183.36 329.26 177.53 329.26 177.53 337.28"/>
          <polygon class="cls-1" points="188.61 336.25 188.61 333.76 192.86 333.76 192.86 332.72 188.61 332.72 188.61 330.3 193.36 330.3 193.36 329.26 187.5 329.26 187.5 337.28 193.42 337.28 193.42 336.25 188.61 336.25"/>
        </g>
        <g>
          <polygon class="cls-1" points="81.33 167 87.23 167 87.23 165.64 81.33 165.64 81.33 162.2 87.93 162.2 87.93 160.84 79.86 160.84 79.86 171.91 88.01 171.91 88.01 171.9 88.01 170.54 81.33 170.54 81.33 167"/>
          <polygon class="cls-1" points="95.82 160.84 94.35 160.84 94.35 171.91 101.91 171.91 101.91 170.53 95.82 170.53 95.82 160.84"/>
          <path class="cls-1" d="M111.4,160.76l-5.04,11.15h1.53l1.28-2.86h5.73l1.27,2.86h1.58l-5.04-11.15h-1.31ZM114.31,167.69h-4.55l2.28-5.07,2.27,5.07Z"/>
          <path class="cls-1" d="M127.65,165.69c-2.4-.51-2.84-1.06-2.84-2.01s.9-1.62,2.18-1.62c1.11,0,2.08.37,3.04,1.15l.1.08.86-1.14-.09-.08c-1.18-.95-2.34-1.36-3.88-1.36-2.13,0-3.68,1.3-3.68,3.11,0,2.02,1.49,2.75,3.73,3.24,2.29.48,2.71,1.03,2.71,1.96,0,1.01-.89,1.71-2.29,1.71s-2.45-.44-3.63-1.5l-.1-.09-.92,1.09.09.08c1.34,1.2,2.77,1.76,4.5,1.76l.02.02c2.25,0,3.82-1.31,3.82-3.22,0-1.67-1.08-2.63-3.62-3.18Z"/>
          <polygon class="cls-1" points="136.66 162.22 140.29 162.22 140.29 171.91 141.78 171.91 141.78 162.22 145.41 162.22 145.41 160.84 136.66 160.84 136.66 162.22"/>
          <rect class="cls-1" x="152.02" y="160.84" width="1.47" height="11.07"/>
          <polygon class="cls-1" points="170.85 160.84 168.92 160.84 162.88 167.12 162.88 160.84 161.41 160.84 161.41 171.91 162.88 171.91 162.88 168.93 165.05 166.73 169.16 171.91 171.01 171.91 166.08 165.7 170.85 160.84"/>
          <path class="cls-1" d="M180.52,160.76l-5.04,11.15h1.53l1.28-2.86h5.73l1.27,2.86h1.57l-5.04-11.15h-1.3ZM183.42,167.69h-4.55l2.28-5.07,2.27,5.07Z"/>
        </g>
      </g>
    </g>
  </g>
</svg>