<?xml version="1.0" encoding="UTF-8"?>
<svg xmlns="http://www.w3.org/2000/svg" version="1.1" viewBox="0 0 285.84 32.79">
  <defs>
    <style>
      .cls-1 {
        fill: #221f20;
      }
    </style>
  </defs>
  <!-- Generator: Adobe Illustrator 28.7.1, SVG Export Plug-In . SVG Version: 1.2.0 Build 142)  -->
  <g>
    <g id="Layer_1">
      <g>
        <polygon class="cls-1" points="5 17.92 20.64 17.92 20.64 14.62 5 14.62 5 5.19 22.48 5.19 22.48 1.89 1.41 1.89 1.41 30.9 22.68 30.9 22.68 27.6 5 27.6 5 17.92"/>
        <polygon class="cls-1" points="43.36 1.89 39.78 1.89 39.78 30.9 59.49 30.9 59.49 27.56 43.36 27.56 43.36 1.89"/>
        <path class="cls-1" d="M88.18,1.68h-3.26l-13.22,29.22h3.71l3.4-7.57h15.37l3.36,7.57h3.87L88.22,1.79l-.05-.1ZM80.23,20.02l6.28-13.96,6.24,13.96h-12.51Z"/>
        <path class="cls-1" d="M127.74,14.67c-6.46-1.38-7.64-2.9-7.64-5.39v-.08c0-2.62,2.44-4.45,5.92-4.45,3,0,5.59.98,8.16,3.07l.14.12,2.1-2.78-.13-.11c-3.11-2.49-6.15-3.56-10.18-3.56-5.56,0-9.59,3.36-9.59,8v.08c0,4.55,2.74,6.92,9.76,8.44,6.14,1.3,7.31,2.85,7.31,5.27v.08c0,2.76-2.55,4.69-6.21,4.69s-6.56-1.16-9.71-4.01l-.14-.12-2.24,2.65.13.11c3.54,3.16,7.29,4.63,11.83,4.63,5.87,0,9.96-3.41,9.96-8.28v-.08c0-4.36-2.83-6.83-9.47-8.28Z"/>
        <polygon class="cls-1" points="151.85 5.23 161.47 5.23 161.47 30.9 165.1 30.9 165.1 5.23 174.72 5.23 174.72 1.89 151.85 1.89 151.85 5.23"/>
        <rect class="cls-1" x="192.51" y="1.89" width="3.59" height="29.01"/>
        <polygon class="cls-1" points="241.87 1.89 237.2 1.89 220.99 18.74 220.99 1.89 217.4 1.89 217.4 30.9 220.99 30.9 220.99 23.1 226.9 17.11 237.84 30.9 242.35 30.9 229.4 14.61 241.87 1.89"/>
        <path class="cls-1" d="M271.26,1.79l-.05-.1h-3.26l-13.22,29.22h3.71l3.4-7.57h15.37l3.36,7.57h3.87l-13.17-29.11ZM263.26,20.02l6.28-13.96,6.24,13.96h-12.51Z"/>
      </g>
    </g>
  </g>
</svg>