<?xml version="1.0" encoding="UTF-8"?>
<svg xmlns="http://www.w3.org/2000/svg" version="1.1" viewBox="0 0 262.66 110.26">
  <defs>
    <style>
      .cls-1 {
        fill: #221f20;
      }
    </style>
  </defs>
  <!-- Generator: Adobe Illustrator 28.7.1, SVG Export Plug-In . SVG Version: 1.2.0 Build 142)  -->
  <g>
    <g id="Layer_1">
      <g id="Layer_1-2" data-name="Layer_1">
        <g>
          <rect class="cls-1" x="3.24" y="101.16" width="10.8" height="1.09" transform="translate(-26.03 5.7) rotate(-15)"/>
          <rect class="cls-1" x="3.23" y="82.71" width="10.8" height="1.09" transform="translate(-12.92 2.38) rotate(-9)"/>
          <rect class="cls-1" x="8.09" y="59.42" width="1.09" height="10.8" transform="translate(-56.55 70.05) rotate(-87)"/>
          <rect class="cls-1" x="8.09" y="40.99" width="1.09" height="10.8" transform="translate(-38.54 45.19) rotate(-78)"/>
          <rect class="cls-1" x="8.09" y="22.55" width="1.09" height="10.8" transform="translate(-20.55 26) rotate(-69)"/>
          <rect class="cls-1" x="8.08" y="4.11" width="1.09" height="10.8" transform="translate(-3.92 12.23) rotate(-60)"/>
          <rect class="cls-1" x="22.13" y="101.15" width="10.8" height="1.09" transform="translate(-34.62 16.62) rotate(-21)"/>
          <rect class="cls-1" x="22.12" y="82.71" width="10.8" height="1.09" transform="translate(-8.55 3.33) rotate(-6)"/>
          <rect class="cls-1" x="26.98" y="59.42" width="1.09" height="10.8" transform="translate(-38.64 88.91) rotate(-87)"/>
          <rect class="cls-1" x="26.98" y="40.98" width="1.09" height="10.8" transform="translate(-23.56 63.66) rotate(-78)"/>
          <rect class="cls-1" x="26.98" y="22.55" width="1.09" height="10.8" transform="translate(-8.43 43.63) rotate(-69)"/>
          <rect class="cls-1" x="26.98" y="4.11" width="1.09" height="10.8" transform="translate(5.53 28.59) rotate(-60)"/>
          <rect class="cls-1" x="40.99" y="101.15" width="10.8" height="1.09" transform="translate(-29.15 19.31) rotate(-18)"/>
          <rect class="cls-1" x="40.99" y="82.71" width="10.8" height="1.09" transform="translate(-8.45 5.3) rotate(-6)"/>
          <rect class="cls-1" x="45.84" y="59.42" width="1.09" height="10.8" transform="translate(-22.93 104.17) rotate(-84)"/>
          <rect class="cls-1" x="45.84" y="40.99" width="1.09" height="10.8" transform="translate(-8.63 82.12) rotate(-78)"/>
          <rect class="cls-1" x="45.85" y="22.55" width="1.09" height="10.8" transform="translate(3.67 61.24) rotate(-69)"/>
          <rect class="cls-1" x="45.84" y="4.11" width="1.09" height="10.8" transform="translate(14.96 44.93) rotate(-60)"/>
          <rect class="cls-1" x="59.68" y="101.14" width="10.8" height="1.09" transform="translate(-24.1 20.31) rotate(-15)"/>
          <rect class="cls-1" x="59.68" y="82.71" width="10.8" height="1.09" transform="translate(-8.35 7.26) rotate(-6)"/>
          <rect class="cls-1" x="64.53" y="59.42" width="1.09" height="10.8" transform="translate(-9.13 118.95) rotate(-81)"/>
          <rect class="cls-1" x="64.54" y="40.98" width="1.09" height="10.8" transform="translate(.86 93.94) rotate(-72)"/>
          <rect class="cls-1" x="64.54" y="22.55" width="1.09" height="10.8" transform="translate(13.08 76.04) rotate(-66)"/>
          <rect class="cls-1" x="64.54" y="4.11" width="1.09" height="10.8" transform="translate(19.14 56.57) rotate(-54)"/>
          <rect class="cls-1" x="78.84" y="101.15" width="10.8" height="1.09" transform="translate(-14.87 14.43) rotate(-9)"/>
          <rect class="cls-1" x="83.69" y="77.85" width="1.09" height="10.8" transform="translate(-3.31 163.01) rotate(-87)"/>
          <rect class="cls-1" x="83.69" y="59.42" width="1.09" height="10.8" transform="translate(3.33 133.74) rotate(-78)"/>
          <rect class="cls-1" x="83.7" y="40.98" width="1.09" height="10.8" transform="translate(10.75 108.4) rotate(-69)"/>
          <rect class="cls-1" x="83.69" y="22.54" width="1.09" height="10.8" transform="translate(17.92 86.93) rotate(-60)"/>
          <rect class="cls-1" x="83.7" y="4.11" width="1.09" height="10.8" transform="translate(23.84 68.99) rotate(-51)"/>
          <rect class="cls-1" x="97.78" y="101.15" width="10.8" height="1.09"/>
          <rect class="cls-1" x="102.64" y="77.86" width="1.09" height="10.8" transform="translate(4.81 172.15) rotate(-81)"/>
          <rect class="cls-1" x="102.64" y="59.42" width="1.09" height="10.8" transform="translate(5.69 137.93) rotate(-69)"/>
          <rect class="cls-1" x="102.64" y="40.99" width="1.09" height="10.8" transform="translate(15.01 117.27) rotate(-63)"/>
          <rect class="cls-1" x="102.64" y="22.55" width="1.09" height="10.8" transform="translate(19.92 95) rotate(-54)"/>
          <rect class="cls-1" x="102.64" y="4.12" width="1.09" height="10.8" transform="translate(27.07 79.83) rotate(-48)"/>
          <rect class="cls-1" x="121.06" y="96.29" width="1.09" height="10.8" transform="translate(-3.15 199.5) rotate(-78)"/>
          <rect class="cls-1" x="121.07" y="77.87" width="1.09" height="10.8" transform="translate(.3 166.97) rotate(-69)"/>
          <rect class="cls-1" x="121.07" y="59.43" width="1.09" height="10.8" transform="translate(8.64 143.75) rotate(-63)"/>
          <rect class="cls-1" x="121.07" y="40.98" width="1.09" height="10.8" transform="translate(12.61 117.5) rotate(-54)"/>
          <rect class="cls-1" x="121.06" y="22.54" width="1.09" height="10.8" transform="translate(19.47 99.62) rotate(-48)"/>
          <rect class="cls-1" x="121.07" y="4.12" width="1.09" height="10.8" transform="translate(24.87 83.82) rotate(-42)"/>
          <rect class="cls-1" x="140.07" y="96.3" width="1.09" height="10.8" transform="translate(-17.77 172.63) rotate(-60)"/>
          <rect class="cls-1" x="140.08" y="77.86" width="1.09" height="10.8" transform="translate(-5.79 155.85) rotate(-57)"/>
          <rect class="cls-1" x="140.08" y="59.43" width="1.09" height="10.8" transform="translate(5.52 140.49) rotate(-54)"/>
          <rect class="cls-1" x="140.08" y="40.99" width="1.09" height="10.8" transform="translate(5.08 106.01) rotate(-42)"/>
          <rect class="cls-1" x="140.07" y="22.55" width="1.09" height="10.8" transform="translate(13.75 94.72) rotate(-39)"/>
          <rect class="cls-1" x="140.07" y="4.12" width="1.09" height="10.8" transform="translate(17.5 78.12) rotate(-33)"/>
          <rect class="cls-1" x="158.89" y="96.3" width="1.09" height="10.8" transform="translate(-25.21 142.52) rotate(-45)"/>
          <rect class="cls-1" x="158.9" y="77.86" width="1.09" height="10.8" transform="translate(-14.76 128.08) rotate(-42)"/>
          <rect class="cls-1" x="158.89" y="59.42" width="1.09" height="10.8" transform="translate(-5.26 114.78) rotate(-39)"/>
          <rect class="cls-1" x="158.89" y="40.99" width="1.09" height="10.8" transform="translate(3.18 102.57) rotate(-36)"/>
          <rect class="cls-1" x="158.89" y="22.54" width="1.09" height="10.8" transform="translate(7.39 83.46) rotate(-30)"/>
          <rect class="cls-1" x="158.9" y="4.12" width="1.09" height="10.8" transform="translate(13.06 73.42) rotate(-27)"/>
          <rect class="cls-1" x="177.71" y="96.3" width="1.09" height="10.8" transform="translate(-26.74 92.01) rotate(-27)"/>
          <rect class="cls-1" x="177.71" y="77.87" width="1.09" height="10.8" transform="translate(-17.75 100.29) rotate(-30)"/>
          <rect class="cls-1" x="177.71" y="59.42" width="1.09" height="10.8" transform="translate(-8.53 97.81) rotate(-30)"/>
          <rect class="cls-1" x="177.71" y="40.99" width="1.09" height="10.8" transform="translate(-3.46 76.51) rotate(-24)"/>
          <rect class="cls-1" x="177.71" y="22.54" width="1.09" height="10.8" transform="translate(4.05 74.92) rotate(-24)"/>
          <rect class="cls-1" x="177.72" y="4.12" width="1.09" height="10.8" transform="translate(5.78 55.55) rotate(-18)"/>
          <rect class="cls-1" x="196.87" y="96.3" width="1.09" height="10.8" transform="translate(-16.83 43.27) rotate(-12)"/>
          <rect class="cls-1" x="196.87" y="77.87" width="1.09" height="10.8" transform="translate(-14.82 53.93) rotate(-15)"/>
          <rect class="cls-1" x="196.86" y="59.42" width="1.09" height="10.8" transform="translate(-10.37 64.17) rotate(-18)"/>
          <rect class="cls-1" x="196.87" y="40.98" width="1.09" height="10.8" transform="translate(-5.28 52.68) rotate(-15)"/>
          <rect class="cls-1" x="196.86" y="22.55" width="1.09" height="10.8" transform="translate(-1.5 41.65) rotate(-12)"/>
          <rect class="cls-1" x="196.86" y="4.12" width="1.09" height="10.8" transform="translate(.94 31) rotate(-9)"/>
          <rect class="cls-1" x="215.86" y="96.29" width="1.09" height="10.8"/>
          <rect class="cls-1" x="215.85" y="77.86" width="1.09" height="10.8" transform="translate(-7.52 23.08) rotate(-6)"/>
          <rect class="cls-1" x="215.85" y="59.42" width="1.09" height="10.8" transform="translate(-5.59 22.97) rotate(-6)"/>
          <rect class="cls-1" x="215.86" y="40.98" width="1.09" height="10.8" transform="translate(-3.66 22.87) rotate(-6)"/>
          <rect class="cls-1" x="215.85" y="22.54" width="1.09" height="10.8" transform="translate(-1.17 11.36) rotate(-3)"/>
          <rect class="cls-1" x="215.86" y="4.11" width="1.09" height="10.8"/>
          <rect class="cls-1" x="229.95" y="101.15" width="10.8" height="1.09" transform="translate(109.61 325.13) rotate(-84)"/>
          <rect class="cls-1" x="229.95" y="82.71" width="10.8" height="1.09" transform="translate(127.95 308.62) rotate(-84)"/>
          <rect class="cls-1" x="229.95" y="64.28" width="10.8" height="1.09" transform="translate(158.3 296.46) rotate(-87)"/>
          <rect class="cls-1" x="229.95" y="45.84" width="10.8" height="1.09" transform="translate(176.71 278.98) rotate(-87)"/>
          <rect class="cls-1" x="229.95" y="27.4" width="10.8" height="1.09" transform="translate(182.96 259.08) rotate(-84)"/>
          <rect class="cls-1" x="229.95" y="8.97" width="10.8" height="1.09" transform="translate(201.29 242.58) rotate(-84)"/>
          <rect class="cls-1" x="248.61" y="101.15" width="10.8" height="1.09" transform="translate(78.8 311.85) rotate(-72)"/>
          <rect class="cls-1" x="248.61" y="82.71" width="10.8" height="1.09" transform="translate(107.85 307.07) rotate(-75)"/>
          <rect class="cls-1" x="248.61" y="64.27" width="10.8" height="1.09" transform="translate(137.79 299.8) rotate(-78)"/>
          <rect class="cls-1" x="248.61" y="45.84" width="10.8" height="1.09" transform="translate(155.83 285.2) rotate(-78)"/>
          <rect class="cls-1" x="248.62" y="27.4" width="10.8" height="1.09" transform="translate(173.87 270.6) rotate(-78)"/>
          <rect class="cls-1" x="248.61" y="8.97" width="10.8" height="1.09" transform="translate(179.08 252.4) rotate(-75)"/>
        </g>
      </g>
    </g>
  </g>
</svg>